<svg xmlns="http://www.w3.org/2000/svg" xmlns:xlink="http://www.w3.org/1999/xlink" width="1024" height="1024"><defs><path id="a" d="M0 0h1024v1024H0z"/><path id="d" d="M480.413 767.648c-45.266 0-74.365-32.737-74.365-87.298 0-54.965 29.1-87.702 74.365-87.702 45.67 0 74.365 33.545 74.365 87.702 0 53.753-28.695 87.298-74.365 87.298Z"/><path id="e" d="M475.656 741.648c-37.632 0-61.824-27.216-61.824-72.576 0-45.696 24.192-72.912 61.824-72.912 37.968 0 61.824 27.888 61.824 72.912 0 44.688-23.856 72.576-61.824 72.576Z"/><linearGradient id="b" x1="50%" x2="50%" y1="100%" y2="1.412%"><stop offset="0%" stop-color="#22335C"/><stop offset="100%" stop-color="#344C84"/></linearGradient></defs><g fill="none" fill-rule="evenodd"><path fill="#FFF" d="M0 0h1024v1024H0z"/><mask id="c" fill="#fff"><use xlink:href="#a"/></mask><use xlink:href="#a" fill="url(#b)"/><path fill="#FFF" fill-rule="nonzero" d="M263.272 467v-94.08h29.904c53.424 0 81.312-24.528 81.312-71.232 0-46.368-27.216-68.88-81.312-68.88h-82.32V467h52.416ZM287.8 324.536h-24.528v-43.344H287.8c23.184 0 33.936 3.36 33.936 21.168 0 18.816-12.432 22.176-33.936 22.176ZM428.584 467l15.12-39.648h88.032L546.856 467h57.456l-97.104-234.192h-38.64L371.128 467h57.456Zm85.008-88.032h-51.408l25.872-67.536 25.536 67.536ZM693.352 467C773.32 467 817 426.344 817 351.752c0-75.936-45.024-118.944-123.312-118.944h-70.56V467h70.224Zm-5.376-48.384H675.88V281.192h16.8c44.016 0 71.232 14.112 71.232 68.544 0 56.448-28.224 68.88-75.936 68.88ZM359.704 792v-48.384h-96.096V557.808h-52.752V792h148.848Z" mask="url(#c)"/><path fill="#3BBDFF" fill-rule="nonzero" d="M479.656 798.048c67.872 0 114.912-49.056 114.912-122.976 0-74.256-46.368-123.312-114.912-123.312-67.872 0-114.576 49.392-114.576 123.312 0 73.584 46.704 122.976 114.576 122.976ZM678.232 792v-71.568l35.616-35.952L778.696 792h61.152l-90.384-143.808 89.712-90.384H769.96l-91.728 96.432v-96.432H625.48V792h52.752Z" mask="url(#c)"/><g fill-rule="nonzero" mask="url(#c)"><use xlink:href="#d" fill="#3BBDFF"/><use xlink:href="#d" fill="#000" fill-opacity=".4"/></g><g fill-rule="nonzero" mask="url(#c)"><use xlink:href="#e" fill="#3BBDFF"/><use xlink:href="#e" fill="#FFF" fill-opacity=".4"/></g><g mask="url(#c)"><path fill="#FFB900" fill-rule="nonzero" d="M758.156 947.987s0-35.669-24.46-49.495c-24.458-13.827-52.963-10.35-52.963-10.35s-9.8-16.579-33.313-19.126c-23.514-2.546-46.871 2.547-46.871 2.547s-11.203-15.492-33.2-15.492c-21.998 0-48.648 15.492-48.648 15.492V698.862c0-15.94-1.032-50.075-40.997-50.097-39.964-.011-38.457 34.856-38.457 50.097v215.673c0 16.64-8.795 18.295-12.838 0-4.043-18.295-20.805-47.649-35.053-58.464-14.247-10.815-44.627-19.525-65.08-6.975-17.55 10.769-4.059 28.148 7.032 49.396 26.696 51.214 52.453 101.34 58.048 135.848 15.786 97.471 50.979 172.56 172.372 172.658 66.899.036 150.052-45.754 168.469-109.814 12.278-42.706 20.93-92.439 25.959-149.197Z"/></g></g></svg>