<?xml version="1.0" encoding="UTF-8"?>
<svg width="48px" height="61px" viewBox="0 0 48 61" version="1.1" xmlns="http://www.w3.org/2000/svg" xmlns:xlink="http://www.w3.org/1999/xlink">
    <symbol id="Hand" stroke="none" stroke-width="1" fill-rule="evenodd">
        <path d="M47.8190661,32.6966991 C47.8190661,32.6966991 47.8190661,28.7990158 45.1628763,27.2881701 C42.5066864,25.7773244 39.4111213,26.1572558 39.4111213,26.1572558 C39.4111213,26.1572558 38.3469506,24.3455933 35.7934396,24.0673066 C33.2399285,23.7890198 30.7033644,24.3455933 30.7033644,24.3455933 C30.7033644,24.3455933 29.4867453,22.6527171 27.0978945,22.6527171 C24.7090438,22.6527171 21.8149262,24.3455933 21.8149262,24.3455933 L21.8149262,5.47390326 C21.8149262,3.73207699 21.7028869,0.00206069185 17.3628042,0 C13.0227216,-0.00157568866 13.1864568,3.80844098 13.1864568,5.47390326 L13.1864568,29.0413021 C13.1864568,30.8594924 12.2312698,31.040437 11.7922249,29.0413021 C11.3531799,27.0421672 9.53283931,23.8345407 7.98559986,22.6527171 C6.4383604,21.4708934 3.13925788,20.5191703 0.918147871,21.8904791 C-0.987857506,23.067243 0.477312144,24.9663411 1.68168507,27.2881701 C4.58086026,32.8845597 7.37798829,38.3619175 7.98559986,42.132844 C9.69993249,52.7838026 13.5217478,60.989055 26.7047488,61 C41.0834425,61.0072369 47.4571982,45.5843193 47.8190661,42.7770443 C48.0603113,40.9055277 48.0603113,37.5454126 47.8190661,32.6966991 Z" fill-rule="nonzero"></path>
    </symbol>
</svg>