<svg xmlns="http://www.w3.org/2000/svg" xmlns:xlink="http://www.w3.org/1999/xlink" width="181" height="75"><defs><path id="a" d="M17.068 31.622c-6.585 0-10.818-4.824-10.818-12.862 0-8.099 4.233-12.922 10.818-12.922 6.643 0 10.817 4.942 10.817 12.922 0 7.92-4.174 12.862-10.817 12.862Z"/><path id="b" d="M16.106 28.216c-5.414 0-8.894-4.004-8.894-10.678 0-6.723 3.48-10.727 8.894-10.727 5.463 0 8.895 4.103 8.895 10.727 0 6.575-3.432 10.678-8.895 10.678Z"/></defs><g fill="none"><path fill="#FFF" d="M12.074 21C20.008 21 24 24.268 24 31c0 6.78-4.09 10.341-11.926 10.341H7.688V55H0V21Zm-.789 7.024H7.688v6.293h3.597c3.154 0 4.978-.488 4.978-3.22 0-2.585-1.577-3.073-4.978-3.073ZM41.841 21 56 55h-8.378l-2.204-5.756H32.582L30.378 55H22l14.207-34h5.634ZM39.05 32.415l-3.772 9.805h7.495l-3.723-9.805ZM68.19 21C79.498 21 86 27.244 86 38.268 86 49.098 79.692 55 68.142 55H58V21Zm-.145 7.024H65.62v19.952h1.747c6.89 0 10.967-1.805 10.967-10 0-7.903-3.93-9.952-10.288-9.952ZM112 55v-7.024H97.797V21H90v34z"/><path fill="#3BBDFF" d="M129.476 55C139.236 55 146 47.83 146 37.025 146 26.17 139.332 19 129.476 19 119.716 19 113 26.22 113 37.025 113 47.78 119.716 55 129.476 55Z"/><g transform="translate(113 19)"><use xlink:href="#a" fill="#3BBDFF"/><use xlink:href="#a" fill="#000" fill-opacity=".4"/></g><g transform="translate(113 19)"><use xlink:href="#b" fill="#3BBDFF"/><use xlink:href="#b" fill="#FFF" fill-opacity=".4"/></g><path fill="#3BBDFF" d="M157.629 54V43.61l5.15-5.22L172.157 54H181l-13.07-20.878L180.902 20h-10.01L157.63 34V20H150v34z"/><path fill="#FFB900" d="M159.82 69.697s0-3.898-2.657-5.409c-2.656-1.51-5.752-1.13-5.752-1.13s-1.064-1.812-3.618-2.09c-2.553-.279-5.09.278-5.09.278s-1.216-1.693-3.605-1.693c-2.389 0-5.283 1.693-5.283 1.693V42.474c0-1.742-.112-5.472-4.452-5.474-4.34-.002-4.177 3.808-4.177 5.474V66.04c0 1.818-.955 2-1.394 0-.439-1.999-2.26-5.206-3.806-6.388-1.548-1.182-4.847-2.134-7.068-.763-1.906 1.177-.44 3.076.764 5.398 2.899 5.597 5.696 11.074 6.304 14.845 1.714 10.65 5.536 18.856 18.719 18.867C145.97 98.004 155 93 157 86c1.333-4.667 2.273-10.101 2.82-16.303Z"/></g></svg>