<?xml version="1.0" encoding="UTF-8"?>
<svg width="135px" height="40px" viewBox="0 0 135 40" version="1.1" xmlns="http://www.w3.org/2000/svg" xmlns:xlink="http://www.w3.org/1999/xlink">
    <title>playstore-soon-light</title>
    <defs>
        <polygon id="path-1" points="0 0 135.142714 0 135.142714 40 0 40"></polygon>
    </defs>
    <g id="playstore-soon-light" stroke="none" stroke-width="1" fill="none" fill-rule="evenodd">
        <g id="Group-4">
            <mask id="mask-2" fill="white">
                <use xlink:href="#path-1"></use>
            </mask>
            <g id="Clip-2"></g>
            <path d="M130.135203,40.0600901 L4.94742113,40.0600901 C2.19328993,40.0600901 -0.0600901352,37.8067101 -0.0600901352,35.0525789 L-0.0600901352,5.00751127 C-0.0600901352,2.25338007 2.19328993,0 4.94742113,0 L130.135203,0 C132.889334,0 135.142714,2.25338007 135.142714,5.00751127 L135.142714,35.0525789 C135.142714,37.8067101 132.889334,40.0600901 130.135203,40.0600901" id="Fill-1" fill="#FFFFFF" mask="url(#mask-2)"></path>
            <path d="M130.135203,0 L4.94742113,0 C2.19328993,0 -0.0600901352,2.25338007 -0.0600901352,5.00751127 L-0.0600901352,35.0525789 C-0.0600901352,37.8067101 2.19328993,40.0600901 4.94742113,40.0600901 L130.135203,40.0600901 C132.889334,40.0600901 135.142714,37.8067101 135.142714,35.0525789 L135.142714,5.00751127 C135.142714,2.25338007 132.889334,0 130.135203,0 Z M130.135203,0.801201803 C132.454682,0.801201803 134.341512,2.68803205 134.341512,5.00751127 L134.341512,35.0525789 C134.341512,37.3720581 132.454682,39.2588883 130.135203,39.2588883 L4.94742113,39.2588883 C2.62794191,39.2588883 0.741111668,37.3720581 0.741111668,35.0525789 L0.741111668,5.00751127 C0.741111668,2.68803205 2.62794191,0.801201803 4.94742113,0.801201803 L130.135203,0.801201803 L130.135203,0.801201803 Z" id="Fill-3" fill="#000000" mask="url(#mask-2)"></path>
        </g>
        <g id="BIENTÔT-SUR" transform="translate(41.855644, 5.265991)" fill="#000000" fill-rule="nonzero">
            <path d="M0,7.87670898 L0,1.82084961 L1.57125,1.82084961 C2.17683594,1.82084961 2.64125488,1.93541992 2.96450684,2.16456055 C3.28775879,2.39370117 3.44938477,2.72377279 3.44938477,3.15477539 C3.44938477,3.88857096 3.03474935,4.41095703 2.20547852,4.72193359 C3.19569336,5.02472656 3.69080078,5.57166341 3.69080078,6.36274414 C3.69080078,6.85375977 3.52712891,7.22884115 3.19978516,7.48798828 C2.87244141,7.74713542 2.40052083,7.87670898 1.78402344,7.87670898 L0,7.87670898 Z M0.85109375,7.23429688 L1.02704102,7.23429688 C1.65717773,7.23429688 2.06499349,7.19474284 2.25048828,7.11563477 C2.60511068,6.96560221 2.78242187,6.68736003 2.78242187,6.2809082 C2.78242187,5.92083008 2.62147786,5.62144694 2.29958984,5.38275879 C1.97770182,5.14407064 1.5753418,5.02472656 1.09250977,5.02472656 L0.85109375,5.02472656 L0.85109375,7.23429688 Z M0.85109375,4.48051758 L1.12524414,4.48051758 C1.58352539,4.48051758 1.93882975,4.38231445 2.19115723,4.1859082 C2.4434847,3.98950195 2.56964844,3.7126237 2.56964844,3.35527344 C2.56964844,2.76059896 2.10863932,2.46326172 1.18662109,2.46326172 L0.85109375,2.46326172 L0.85109375,4.48051758 Z" id="Shape"></path>
            <polygon id="Path" points="4.83614492 7.87670898 4.83614492 1.82084961 5.69542227 1.82084961 5.69542227 7.87670898"></polygon>
            <polygon id="Path" points="7.27449688 7.87670898 7.27449688 1.82084961 10.6584129 1.82084961 10.6584129 2.46326172 8.13377422 2.46326172 8.13377422 4.40686523 10.2492332 4.40686523 10.2492332 5.04109375 8.13377422 5.04109375 8.13377422 7.23429688 10.8343602 7.23429688 10.8343602 7.87670898"></polygon>
            <polygon id="Path" points="11.8364914 7.87670898 11.8364914 1.82084961 12.6794016 1.82084961 15.7277902 6.49777344 15.7277902 1.82084961 16.4643137 1.82084961 16.4643137 7.87670898 15.6254953 7.87670898 12.5730148 3.19978516 12.5730148 7.87670898"></polygon>
            <polygon id="Path" points="19.4877926 7.87670898 19.4877926 2.46326172 17.3395992 2.46326172 17.3395992 1.82084961 22.4952633 1.82084961 22.4952633 2.46326172 20.3470699 2.46326172 20.3470699 7.87670898"></polygon>
            <path d="M25.805168,8.02810547 C24.9649857,8.02810547 24.2891572,7.73690592 23.7776826,7.15450684 C23.266208,6.57210775 23.0104707,5.80216797 23.0104707,4.8446875 C23.0104707,3.8817513 23.2675719,3.11181152 23.7817744,2.53486816 C24.2959769,1.9579248 24.9827168,1.66945313 25.8419941,1.66945313 C26.6985436,1.66945313 27.3846016,1.95724284 27.900168,2.53282227 C28.4157344,3.10840169 28.6735176,3.87629557 28.6735176,4.83650391 C28.6735176,5.81580729 28.4157344,6.59256673 27.900168,7.16678223 C27.3846016,7.74099772 26.6862682,8.02810547 25.805168,8.02810547 Z M25.8174434,7.38569336 C26.4366686,7.38569336 26.9154089,7.16269043 27.2536641,6.71668457 C27.5919193,6.27067871 27.7610469,5.64122396 27.7610469,4.82832031 C27.7610469,4.03996745 27.5912373,3.42347005 27.2516182,2.97882813 C26.911999,2.5341862 26.4421243,2.31186523 25.8419941,2.31186523 C25.2391361,2.31186523 24.7685794,2.53486816 24.4303242,2.98087402 C24.092069,3.42687988 23.9229414,4.04678711 23.9229414,4.8405957 C23.9229414,5.63167643 24.0907051,6.25362956 24.4262324,6.70645508 C24.7617598,7.1592806 25.2254967,7.38569336 25.8174434,7.38569336 Z M24.4098652,1.3134668 L25.3959883,0 L26.288,0 L27.274123,1.3134668 L26.6685371,1.3134668 L25.8460859,0.486923828 L25.8379023,0.486923828 L25.0154512,1.3134668 L24.4098652,1.3134668 Z" id="Shape"></path>
            <polygon id="Path" points="31.3369184 7.87670898 31.3369184 2.46326172 29.188725 2.46326172 29.188725 1.82084961 34.3443891 1.82084961 34.3443891 2.46326172 32.1961957 2.46326172 32.1961957 7.87670898"></polygon>
            <path d="M39.0737883,8.02810547 C38.6673365,8.02810547 38.1476783,7.93944987 37.5148137,7.76213867 L37.5148137,6.91104492 C38.1967798,7.22747721 38.757356,7.38569336 39.1965422,7.38569336 C39.5347974,7.38569336 39.8069019,7.29703776 40.0128557,7.11972656 C40.2188094,6.94241536 40.3217863,6.70918294 40.3217863,6.4200293 C40.3217863,6.18270508 40.2542717,5.9808431 40.1192424,5.81444336 C39.9842131,5.64804362 39.7352954,5.46254883 39.3724895,5.25795898 L38.9551262,5.01654297 C38.4395598,4.72193359 38.0760718,4.44437337 37.8646623,4.1838623 C37.6532528,3.92335124 37.547548,3.6198763 37.547548,3.2734375 C37.547548,2.80697266 37.7166757,2.42302572 38.0549309,2.12159668 C38.3931861,1.82016764 38.8241887,1.66945313 39.3479387,1.66945313 C39.8144035,1.66945313 40.3067831,1.74719727 40.8250773,1.90268555 L40.8250773,2.68831055 C40.186757,2.43734701 39.7107447,2.31186523 39.3970402,2.31186523 C39.099703,2.31186523 38.8541952,2.39097331 38.6605168,2.54918945 C38.4668384,2.7074056 38.3699992,2.90653971 38.3699992,3.1465918 C38.3699992,3.34845378 38.4409237,3.52712891 38.5827727,3.68261719 C38.7246216,3.83810547 38.9837688,4.02360026 39.3602141,4.23910156 L39.7939445,4.48460938 C40.3176945,4.78194661 40.6832284,5.06291667 40.8905461,5.32751953 C41.0978638,5.5921224 41.2015227,5.90991862 41.2015227,6.2809082 C41.2015227,6.80738607 41.0071623,7.23020508 40.6184416,7.54936523 C40.2297209,7.86852539 39.7148365,8.02810547 39.0737883,8.02810547 Z" id="Path"></path>
            <path d="M42.3714176,1.82084961 L43.2306949,1.82084961 L43.2306949,5.64258789 C43.2306949,6.25090169 43.3432193,6.69349772 43.5682682,6.97037598 C43.793317,7.24725423 44.1513492,7.38569336 44.6423648,7.38569336 C45.122469,7.38569336 45.4627701,7.25543783 45.6632682,6.99492676 C45.8637662,6.73441569 45.9640152,6.29318359 45.9640152,5.67123047 L45.9640152,1.82084961 L46.7169059,1.82084961 L46.7169059,5.65895508 C46.7169059,6.48549805 46.5470963,7.08699219 46.2074771,7.4634375 C45.867858,7.83988281 45.3270589,8.02810547 44.5850797,8.02810547 C43.8294612,8.02810547 43.2716129,7.83306315 42.9115348,7.44297852 C42.5514566,7.05289388 42.3714176,6.45003581 42.3714176,5.6344043 L42.3714176,1.82084961 Z" id="Path"></path>
            <path d="M48.2468789,7.87670898 L48.2468789,1.82084961 L50.0800039,1.82084961 C50.6610391,1.82084961 51.106363,1.94905924 51.4159756,2.20547852 C51.7255882,2.46189779 51.8803945,2.8342513 51.8803945,3.32253906 C51.8803945,4.12998698 51.4725788,4.70283854 50.6569473,5.04109375 L52.6782949,7.87670898 L51.6226113,7.87670898 L49.8999648,5.31524414 L49.0979727,5.31524414 L49.0979727,7.87670898 L48.2468789,7.87670898 Z M49.0979727,4.67283203 L49.3762148,4.67283203 C50.4564492,4.67283203 50.9965664,4.24864909 50.9965664,3.4002832 C50.9965664,2.77560221 50.5437409,2.46326172 49.6380898,2.46326172 L49.0979727,2.46326172 L49.0979727,4.67283203 Z" id="Shape"></path>
        </g>
        <path d="M107.036555,30.0450676 L108.905358,30.0450676 L108.905358,17.5242864 L107.036555,17.5242864 L107.036555,30.0450676 Z M123.868803,22.0350526 L121.72659,27.4631948 L121.662494,27.4631948 L119.439159,22.0350526 L117.426139,22.0350526 L120.761142,29.6214321 L118.859289,33.8417626 L120.808212,33.8417626 L125.94692,22.0350526 L123.868803,22.0350526 Z M113.269905,28.6229344 C112.658988,28.6229344 111.804707,28.3164747 111.804707,27.5603405 C111.804707,26.5938908 112.868302,26.223335 113.785679,26.223335 C114.60691,26.223335 114.994492,26.3995994 115.49324,26.6419629 C115.348022,27.8017026 114.349524,28.6229344 113.269905,28.6229344 Z M113.496244,21.7616425 C112.143215,21.7616425 110.742113,22.3575363 110.162243,23.6785178 L111.820731,24.3705558 C112.175263,23.6785178 112.835253,23.4521783 113.528292,23.4521783 C114.494742,23.4521783 115.477216,24.0320481 115.49324,25.0635954 L115.49324,25.1917877 C115.154732,24.9984977 114.429644,24.7090636 113.544316,24.7090636 C111.755633,24.7090636 109.935904,25.6915373 109.935904,27.5272909 C109.935904,29.2028042 111.402103,30.2824236 113.044567,30.2824236 C114.300451,30.2824236 114.994492,29.7185779 115.428142,29.0575864 L115.49324,29.0575864 L115.49324,30.0250376 L117.297947,30.0250376 L117.297947,25.2248373 C117.297947,23.0015023 115.637456,21.7616425 113.496244,21.7616425 Z M101.94692,23.559339 L99.2889334,23.559339 L99.2889334,19.2679019 L101.94692,19.2679019 C103.344016,19.2679019 104.137206,20.424637 104.137206,21.4131197 C104.137206,22.3835754 103.344016,23.559339 101.94692,23.559339 Z M101.898848,17.5252879 L97.4211317,17.5252879 L97.4211317,30.0450676 L99.2889334,30.0450676 L99.2889334,25.3019529 L101.898848,25.3019529 C103.969955,25.3019529 106.006009,23.8027041 106.006009,21.4131197 C106.006009,19.0245368 103.969955,17.5252879 101.898848,17.5252879 Z M77.4812218,28.6259389 C76.1902854,28.6259389 75.1096645,27.5443165 75.1096645,26.0600901 C75.1096645,24.5588383 76.1902854,23.4621933 77.4812218,23.4621933 C78.7551327,23.4621933 79.7556335,24.5588383 79.7556335,26.0600901 C79.7556335,27.5443165 78.7551327,28.6259389 77.4812218,28.6259389 Z M79.6264397,22.7361042 L79.5623435,22.7361042 C79.1427141,22.2363545 78.3355033,21.7836755 77.31998,21.7836755 C75.1897847,21.7836755 73.2368553,23.6564847 73.2368553,26.0600901 C73.2368553,28.4476715 75.1897847,30.3034552 77.31998,30.3034552 C78.3355033,30.3034552 79.1427141,29.8517777 79.5623435,29.336004 L79.6264397,29.336004 L79.6264397,29.9479219 C79.6264397,31.5783676 78.7551327,32.448673 77.352028,32.448673 C76.2063095,32.448673 75.4962444,31.6264397 75.2058087,30.9323986 L73.5763645,31.6104156 C74.0440661,32.7391087 75.2859289,34.1271908 77.352028,34.1271908 C79.5463195,34.1271908 81.4021032,32.8362544 81.4021032,29.6905358 L81.4021032,22.0420631 L79.6264397,22.0420631 L79.6264397,22.7361042 Z M82.6930396,30.0450676 L84.5638458,30.0450676 L84.5638458,17.5242864 L82.6930396,17.5242864 L82.6930396,30.0450676 Z M87.3229845,25.9148723 C87.2749124,24.2684026 88.5978968,23.4301452 89.549324,23.4301452 C90.2924387,23.4301452 90.9213821,23.8017026 91.1316975,24.3335003 L87.3229845,25.9148723 Z M93.1316975,24.4947421 C92.7761642,23.543315 91.6955433,21.7836755 89.4852278,21.7836755 C87.2909364,21.7836755 85.4672008,23.5112669 85.4672008,26.0440661 C85.4672008,28.4316475 87.2749124,30.3034552 89.6945418,30.3034552 C91.6464697,30.3034552 92.7761642,29.1096645 93.2448673,28.4156234 L91.792689,27.4471708 C91.3079619,28.1572359 90.6469705,28.6259389 89.6945418,28.6259389 C88.7431147,28.6259389 88.0650976,28.1892839 87.6304457,27.334001 L93.3249875,24.9784677 L93.1316975,24.4947421 Z M47.7556335,23.0916375 L47.7556335,24.8983475 L52.0801202,24.8983475 C51.9499249,25.9148723 51.6114171,26.6569855 51.094642,27.1727591 C50.4656985,27.8027041 49.4812218,28.4967451 47.7556335,28.4967451 C45.092639,28.4967451 43.0115173,26.3505258 43.0115173,23.6885328 C43.0115173,21.0265398 45.092639,18.8803205 47.7556335,18.8803205 C49.1917877,18.8803205 50.239359,19.4451678 51.0145218,20.1712569 L52.2894342,18.8963445 C51.2078117,17.8637957 49.772659,17.0726089 47.7556335,17.0726089 C44.1081622,17.0726089 41.0425638,20.0420631 41.0425638,23.6885328 C41.0425638,27.334001 44.1081622,30.3034552 47.7556335,30.3034552 C49.7235854,30.3034552 51.2078117,29.6574862 52.3695543,28.4476715 C53.563345,27.2538808 53.9349024,25.5763645 53.9349024,24.2203305 C53.9349024,23.8017026 53.9028543,23.4141212 53.8377566,23.0916375 L47.7556335,23.0916375 Z M58.8512769,28.6259389 C57.5603405,28.6259389 56.44667,27.5603405 56.44667,26.0440661 C56.44667,24.5107661 57.5603405,23.4621933 58.8512769,23.4621933 C60.1412118,23.4621933 61.2548823,24.5107661 61.2548823,26.0440661 C61.2548823,27.5603405 60.1412118,28.6259389 58.8512769,28.6259389 Z M58.8512769,21.7836755 C56.4947421,21.7836755 54.5748623,23.575363 54.5748623,26.0440661 C54.5748623,28.4967451 56.4947421,30.3034552 58.8512769,30.3034552 C61.2068102,30.3034552 63.12669,28.4967451 63.12669,26.0440661 C63.12669,23.575363 61.2068102,21.7836755 58.8512769,21.7836755 Z M68.1782674,28.6259389 C66.887331,28.6259389 65.7736605,27.5603405 65.7736605,26.0440661 C65.7736605,24.5107661 66.887331,23.4621933 68.1782674,23.4621933 C69.4692038,23.4621933 70.5818728,24.5107661 70.5818728,26.0440661 C70.5818728,27.5603405 69.4692038,28.6259389 68.1782674,28.6259389 Z M68.1782674,21.7836755 C65.8227341,21.7836755 63.9028543,23.575363 63.9028543,26.0440661 C63.9028543,28.4967451 65.8227341,30.3034552 68.1782674,30.3034552 C70.5338007,30.3034552 72.4536805,28.4967451 72.4536805,26.0440661 C72.4536805,23.575363 70.5338007,21.7836755 68.1782674,21.7836755 L68.1782674,21.7836755 Z" id="Fill-7" fill="#000000"></path>
        <path d="M20.688032,19.4531798 L10.0260391,30.7701552 C10.0260391,30.7731597 10.0270406,30.7751627 10.0270406,30.7771657 C10.3545318,32.006009 11.4762143,32.9103655 12.8082123,32.9103655 C13.3410115,32.9103655 13.8407611,32.7671507 14.2694041,32.5137707 L14.3044567,32.4937406 L26.3064597,25.5683525 L20.688032,19.4531798" id="Fill-8" fill="#D84037"></path>
        <path d="M31.4752128,17.5262894 L31.4651978,17.5192789 L26.2834251,14.5157737 L20.4456685,19.7105658 L26.3044567,25.567351 L31.4581873,22.5938908 C32.3625438,22.1051577 32.9754632,21.1527291 32.9754632,20.0540811 C32.9754632,18.9634452 32.3705558,18.016024 31.4752128,17.5262894" id="Fill-9" fill="#F1B628"></path>
        <path d="M10.0250376,9.2909364 C9.96094141,9.52729094 9.92789184,9.7756635 9.92789184,10.0320481 L9.92789184,30.0300451 C9.92789184,30.2864296 9.96094141,30.5348022 10.0260391,30.7701552 L21.0545819,19.7426139 L10.0250376,9.2909364" id="Fill-10" fill="#5373AA"></path>
        <path d="M20.7671507,20.0310466 L26.2854281,14.5137707 L14.2974462,7.56334502 C13.8617927,7.30195293 13.3530295,7.15172759 12.8082123,7.15172759 C11.4762143,7.15172759 10.3525288,8.05808713 10.0260391,9.2879319 C10.0250376,9.2889334 10.0250376,9.2899349 10.0250376,9.2909364 L20.7671507,20.0310466" id="Fill-11" fill="#319F4F"></path>
    </g>
</svg>