<?xml version="1.0" encoding="UTF-8"?>
<svg width="135px" height="40px" viewBox="0 0 135 40" version="1.1" xmlns="http://www.w3.org/2000/svg" xmlns:xlink="http://www.w3.org/1999/xlink">
    <title>playstore-soon-light</title>
    <defs>
        <polygon id="path-1" points="0 0 135.142714 0 135.142714 40 0 40"></polygon>
    </defs>
    <g id="playstore-soon-light" stroke="none" stroke-width="1" fill="none" fill-rule="evenodd">
        <g id="Group-4">
            <mask id="mask-2" fill="white">
                <use xlink:href="#path-1"></use>
            </mask>
            <g id="Clip-2"></g>
            <path d="M130.135203,40.0600901 L4.94742113,40.0600901 C2.19328993,40.0600901 -0.0600901352,37.8067101 -0.0600901352,35.0525789 L-0.0600901352,5.00751127 C-0.0600901352,2.25338007 2.19328993,0 4.94742113,0 L130.135203,0 C132.889334,0 135.142714,2.25338007 135.142714,5.00751127 L135.142714,35.0525789 C135.142714,37.8067101 132.889334,40.0600901 130.135203,40.0600901" id="Fill-1" fill="#FFFFFF" mask="url(#mask-2)"></path>
            <path d="M130.135203,0 L4.94742113,0 C2.19328993,0 -0.0600901352,2.25338007 -0.0600901352,5.00751127 L-0.0600901352,35.0525789 C-0.0600901352,37.8067101 2.19328993,40.0600901 4.94742113,40.0600901 L130.135203,40.0600901 C132.889334,40.0600901 135.142714,37.8067101 135.142714,35.0525789 L135.142714,5.00751127 C135.142714,2.25338007 132.889334,0 130.135203,0 Z M130.135203,0.801201803 C132.454682,0.801201803 134.341512,2.68803205 134.341512,5.00751127 L134.341512,35.0525789 C134.341512,37.3720581 132.454682,39.2588883 130.135203,39.2588883 L4.94742113,39.2588883 C2.62794191,39.2588883 0.741111668,37.3720581 0.741111668,35.0525789 L0.741111668,5.00751127 C0.741111668,2.68803205 2.62794191,0.801201803 4.94742113,0.801201803 L130.135203,0.801201803 L130.135203,0.801201803 Z" id="Fill-3" fill="#000000" mask="url(#mask-2)"></path>
        </g>
        <g id="SOON-ON" transform="translate(41.483291, 6.935444)" fill="#000000" fill-rule="nonzero">
            <path d="M1.55897461,6.35865234 C1.15252279,6.35865234 0.632864583,6.26999674 0,6.09268555 L0,5.2415918 C0.681966146,5.55802409 1.24254232,5.71624023 1.68172852,5.71624023 C2.01998372,5.71624023 2.29208822,5.62758464 2.49804199,5.45027344 C2.70399577,5.27296224 2.80697266,5.03972982 2.80697266,4.75057617 C2.80697266,4.51325195 2.73945801,4.31138997 2.60442871,4.14499023 C2.46939941,3.97859049 2.22048177,3.7930957 1.85767578,3.58850586 L1.4403125,3.34708984 C0.924746094,3.05248047 0.561258138,2.77492025 0.349848633,2.51440918 C0.138439128,2.25389811 0.032734375,1.95042318 0.032734375,1.60398438 C0.032734375,1.13751953 0.201861979,0.753572591 0.540117188,0.452143555 C0.878372396,0.150714518 1.309375,0 1.833125,0 C2.29958984,0 2.7919694,0.0777441406 3.31026367,0.233232422 L3.31026367,1.01885742 C2.67194336,0.76789388 2.19593099,0.642412109 1.88222656,0.642412109 C1.58488932,0.642412109 1.33938151,0.721520182 1.14570312,0.879736328 C0.95202474,1.03795247 0.855185547,1.23708659 0.855185547,1.47713867 C0.855185547,1.67900065 0.926110026,1.85767578 1.06795898,2.01316406 C1.20980794,2.16865234 1.46895508,2.35414714 1.84540039,2.56964844 L2.27913086,2.81515625 C2.80288086,3.11249349 3.16841471,3.39346354 3.37573242,3.65806641 C3.58305013,3.92266927 3.68670898,4.24046549 3.68670898,4.61145508 C3.68670898,5.13793294 3.49234863,5.56075195 3.10362793,5.87991211 C2.71490723,6.19907227 2.20002279,6.35865234 1.55897461,6.35865234 Z" id="Path"></path>
            <path d="M7.34441641,6.35865234 C6.50423411,6.35865234 5.82840566,6.0674528 5.31693105,5.48505371 C4.80545645,4.90265462 4.54971914,4.13271484 4.54971914,3.17523437 C4.54971914,2.21229818 4.80682038,1.4423584 5.32102285,0.865415039 C5.83522533,0.28847168 6.52196523,0 7.38124258,0 C8.23779206,0 8.92385,0.287789714 9.43941641,0.863369141 C9.95498281,1.43894857 10.212766,2.20684245 10.212766,3.16705078 C10.212766,4.14635417 9.95498281,4.92311361 9.43941641,5.4973291 C8.92385,6.0715446 8.22551667,6.35865234 7.34441641,6.35865234 Z M7.3566918,5.71624023 C7.97591706,5.71624023 8.45465729,5.4932373 8.7929125,5.04723145 C9.13116771,4.60122559 9.30029531,3.97177083 9.30029531,3.15886719 C9.30029531,2.37051432 9.13048574,1.75401693 8.7908666,1.309375 C8.45124746,0.864733073 7.98137279,0.642412109 7.38124258,0.642412109 C6.77838451,0.642412109 6.30782786,0.865415039 5.96957266,1.3114209 C5.63131745,1.75742676 5.46218984,2.37733398 5.46218984,3.17114258 C5.46218984,3.96222331 5.62995352,4.58417643 5.96548086,5.03700195 C6.3010082,5.48982747 6.76474518,5.71624023 7.3566918,5.71624023 Z" id="Shape"></path>
            <path d="M13.8745652,6.35865234 C13.0343829,6.35865234 12.3585545,6.0674528 11.8470799,5.48505371 C11.3356053,4.90265462 11.079868,4.13271484 11.079868,3.17523437 C11.079868,2.21229818 11.3369692,1.4423584 11.8511717,0.865415039 C12.3653742,0.28847168 13.0521141,0 13.9113914,0 C14.7679409,0 15.4539988,0.287789714 15.9695652,0.863369141 C16.4851316,1.43894857 16.7429148,2.20684245 16.7429148,3.16705078 C16.7429148,4.14635417 16.4851316,4.92311361 15.9695652,5.4973291 C15.4539988,6.0715446 14.7556655,6.35865234 13.8745652,6.35865234 Z M13.8868406,5.71624023 C14.5060659,5.71624023 14.9848061,5.4932373 15.3230613,5.04723145 C15.6613165,4.60122559 15.8304441,3.97177083 15.8304441,3.15886719 C15.8304441,2.37051432 15.6606346,1.75401693 15.3210154,1.309375 C14.9813963,0.864733073 14.5115216,0.642412109 13.9113914,0.642412109 C13.3085333,0.642412109 12.8379767,0.865415039 12.4997215,1.3114209 C12.1614663,1.75742676 11.9923387,2.37733398 11.9923387,3.17114258 C11.9923387,3.96222331 12.1601023,4.58417643 12.4956297,5.03700195 C12.831157,5.48982747 13.294894,5.71624023 13.8868406,5.71624023 Z" id="Shape"></path>
            <polygon id="Path" points="17.9660031 6.20725586 17.9660031 0.151396484 18.8089133 0.151396484 21.857302 4.82832031 21.857302 0.151396484 22.5938254 0.151396484 22.5938254 6.20725586 21.755007 6.20725586 18.7025266 1.53033203 18.7025266 6.20725586"></polygon>
            <path d="M29.1196871,6.35865234 C28.2795048,6.35865234 27.6036764,6.0674528 27.0922018,5.48505371 C26.5807271,4.90265462 26.3249898,4.13271484 26.3249898,3.17523437 C26.3249898,2.21229818 26.5820911,1.4423584 27.0962936,0.865415039 C27.610496,0.28847168 28.2972359,0 29.1565133,0 C30.0130628,0 30.6991207,0.287789714 31.2146871,0.863369141 C31.7302535,1.43894857 31.9880367,2.20684245 31.9880367,3.16705078 C31.9880367,4.14635417 31.7302535,4.92311361 31.2146871,5.4973291 C30.6991207,6.0715446 30.0007874,6.35865234 29.1196871,6.35865234 Z M29.1319625,5.71624023 C29.7511878,5.71624023 30.229928,5.4932373 30.5681832,5.04723145 C30.9064384,4.60122559 31.075566,3.97177083 31.075566,3.15886719 C31.075566,2.37051432 30.9057564,1.75401693 30.5661373,1.309375 C30.2265182,0.864733073 29.7566435,0.642412109 29.1565133,0.642412109 C28.5536552,0.642412109 28.0830986,0.865415039 27.7448434,1.3114209 C27.4065882,1.75742676 27.2374605,2.37733398 27.2374605,3.17114258 C27.2374605,3.96222331 27.4052242,4.58417643 27.7407516,5.03700195 C28.0762789,5.48982747 28.5400159,5.71624023 29.1319625,5.71624023 Z" id="Shape"></path>
            <polygon id="Path" points="33.211125 6.20725586 33.211125 0.151396484 34.0540352 0.151396484 37.1024238 4.82832031 37.1024238 0.151396484 37.8389473 0.151396484 37.8389473 6.20725586 37.0001289 6.20725586 33.9476484 1.53033203 33.9476484 6.20725586"></polygon>
        </g>
        <path d="M107.036555,30.0450676 L108.905358,30.0450676 L108.905358,17.5242864 L107.036555,17.5242864 L107.036555,30.0450676 Z M123.868803,22.0350526 L121.72659,27.4631948 L121.662494,27.4631948 L119.439159,22.0350526 L117.426139,22.0350526 L120.761142,29.6214321 L118.859289,33.8417626 L120.808212,33.8417626 L125.94692,22.0350526 L123.868803,22.0350526 Z M113.269905,28.6229344 C112.658988,28.6229344 111.804707,28.3164747 111.804707,27.5603405 C111.804707,26.5938908 112.868302,26.223335 113.785679,26.223335 C114.60691,26.223335 114.994492,26.3995994 115.49324,26.6419629 C115.348022,27.8017026 114.349524,28.6229344 113.269905,28.6229344 Z M113.496244,21.7616425 C112.143215,21.7616425 110.742113,22.3575363 110.162243,23.6785178 L111.820731,24.3705558 C112.175263,23.6785178 112.835253,23.4521783 113.528292,23.4521783 C114.494742,23.4521783 115.477216,24.0320481 115.49324,25.0635954 L115.49324,25.1917877 C115.154732,24.9984977 114.429644,24.7090636 113.544316,24.7090636 C111.755633,24.7090636 109.935904,25.6915373 109.935904,27.5272909 C109.935904,29.2028042 111.402103,30.2824236 113.044567,30.2824236 C114.300451,30.2824236 114.994492,29.7185779 115.428142,29.0575864 L115.49324,29.0575864 L115.49324,30.0250376 L117.297947,30.0250376 L117.297947,25.2248373 C117.297947,23.0015023 115.637456,21.7616425 113.496244,21.7616425 Z M101.94692,23.559339 L99.2889334,23.559339 L99.2889334,19.2679019 L101.94692,19.2679019 C103.344016,19.2679019 104.137206,20.424637 104.137206,21.4131197 C104.137206,22.3835754 103.344016,23.559339 101.94692,23.559339 Z M101.898848,17.5252879 L97.4211317,17.5252879 L97.4211317,30.0450676 L99.2889334,30.0450676 L99.2889334,25.3019529 L101.898848,25.3019529 C103.969955,25.3019529 106.006009,23.8027041 106.006009,21.4131197 C106.006009,19.0245368 103.969955,17.5252879 101.898848,17.5252879 Z M77.4812218,28.6259389 C76.1902854,28.6259389 75.1096645,27.5443165 75.1096645,26.0600901 C75.1096645,24.5588383 76.1902854,23.4621933 77.4812218,23.4621933 C78.7551327,23.4621933 79.7556335,24.5588383 79.7556335,26.0600901 C79.7556335,27.5443165 78.7551327,28.6259389 77.4812218,28.6259389 Z M79.6264397,22.7361042 L79.5623435,22.7361042 C79.1427141,22.2363545 78.3355033,21.7836755 77.31998,21.7836755 C75.1897847,21.7836755 73.2368553,23.6564847 73.2368553,26.0600901 C73.2368553,28.4476715 75.1897847,30.3034552 77.31998,30.3034552 C78.3355033,30.3034552 79.1427141,29.8517777 79.5623435,29.336004 L79.6264397,29.336004 L79.6264397,29.9479219 C79.6264397,31.5783676 78.7551327,32.448673 77.352028,32.448673 C76.2063095,32.448673 75.4962444,31.6264397 75.2058087,30.9323986 L73.5763645,31.6104156 C74.0440661,32.7391087 75.2859289,34.1271908 77.352028,34.1271908 C79.5463195,34.1271908 81.4021032,32.8362544 81.4021032,29.6905358 L81.4021032,22.0420631 L79.6264397,22.0420631 L79.6264397,22.7361042 Z M82.6930396,30.0450676 L84.5638458,30.0450676 L84.5638458,17.5242864 L82.6930396,17.5242864 L82.6930396,30.0450676 Z M87.3229845,25.9148723 C87.2749124,24.2684026 88.5978968,23.4301452 89.549324,23.4301452 C90.2924387,23.4301452 90.9213821,23.8017026 91.1316975,24.3335003 L87.3229845,25.9148723 Z M93.1316975,24.4947421 C92.7761642,23.543315 91.6955433,21.7836755 89.4852278,21.7836755 C87.2909364,21.7836755 85.4672008,23.5112669 85.4672008,26.0440661 C85.4672008,28.4316475 87.2749124,30.3034552 89.6945418,30.3034552 C91.6464697,30.3034552 92.7761642,29.1096645 93.2448673,28.4156234 L91.792689,27.4471708 C91.3079619,28.1572359 90.6469705,28.6259389 89.6945418,28.6259389 C88.7431147,28.6259389 88.0650976,28.1892839 87.6304457,27.334001 L93.3249875,24.9784677 L93.1316975,24.4947421 Z M47.7556335,23.0916375 L47.7556335,24.8983475 L52.0801202,24.8983475 C51.9499249,25.9148723 51.6114171,26.6569855 51.094642,27.1727591 C50.4656985,27.8027041 49.4812218,28.4967451 47.7556335,28.4967451 C45.092639,28.4967451 43.0115173,26.3505258 43.0115173,23.6885328 C43.0115173,21.0265398 45.092639,18.8803205 47.7556335,18.8803205 C49.1917877,18.8803205 50.239359,19.4451678 51.0145218,20.1712569 L52.2894342,18.8963445 C51.2078117,17.8637957 49.772659,17.0726089 47.7556335,17.0726089 C44.1081622,17.0726089 41.0425638,20.0420631 41.0425638,23.6885328 C41.0425638,27.334001 44.1081622,30.3034552 47.7556335,30.3034552 C49.7235854,30.3034552 51.2078117,29.6574862 52.3695543,28.4476715 C53.563345,27.2538808 53.9349024,25.5763645 53.9349024,24.2203305 C53.9349024,23.8017026 53.9028543,23.4141212 53.8377566,23.0916375 L47.7556335,23.0916375 Z M58.8512769,28.6259389 C57.5603405,28.6259389 56.44667,27.5603405 56.44667,26.0440661 C56.44667,24.5107661 57.5603405,23.4621933 58.8512769,23.4621933 C60.1412118,23.4621933 61.2548823,24.5107661 61.2548823,26.0440661 C61.2548823,27.5603405 60.1412118,28.6259389 58.8512769,28.6259389 Z M58.8512769,21.7836755 C56.4947421,21.7836755 54.5748623,23.575363 54.5748623,26.0440661 C54.5748623,28.4967451 56.4947421,30.3034552 58.8512769,30.3034552 C61.2068102,30.3034552 63.12669,28.4967451 63.12669,26.0440661 C63.12669,23.575363 61.2068102,21.7836755 58.8512769,21.7836755 Z M68.1782674,28.6259389 C66.887331,28.6259389 65.7736605,27.5603405 65.7736605,26.0440661 C65.7736605,24.5107661 66.887331,23.4621933 68.1782674,23.4621933 C69.4692038,23.4621933 70.5818728,24.5107661 70.5818728,26.0440661 C70.5818728,27.5603405 69.4692038,28.6259389 68.1782674,28.6259389 Z M68.1782674,21.7836755 C65.8227341,21.7836755 63.9028543,23.575363 63.9028543,26.0440661 C63.9028543,28.4967451 65.8227341,30.3034552 68.1782674,30.3034552 C70.5338007,30.3034552 72.4536805,28.4967451 72.4536805,26.0440661 C72.4536805,23.575363 70.5338007,21.7836755 68.1782674,21.7836755 L68.1782674,21.7836755 Z" id="Fill-7" fill="#000000"></path>
        <path d="M20.688032,19.4531798 L10.0260391,30.7701552 C10.0260391,30.7731597 10.0270406,30.7751627 10.0270406,30.7771657 C10.3545318,32.006009 11.4762143,32.9103655 12.8082123,32.9103655 C13.3410115,32.9103655 13.8407611,32.7671507 14.2694041,32.5137707 L14.3044567,32.4937406 L26.3064597,25.5683525 L20.688032,19.4531798" id="Fill-8" fill="#D84037"></path>
        <path d="M31.4752128,17.5262894 L31.4651978,17.5192789 L26.2834251,14.5157737 L20.4456685,19.7105658 L26.3044567,25.567351 L31.4581873,22.5938908 C32.3625438,22.1051577 32.9754632,21.1527291 32.9754632,20.0540811 C32.9754632,18.9634452 32.3705558,18.016024 31.4752128,17.5262894" id="Fill-9" fill="#F1B628"></path>
        <path d="M10.0250376,9.2909364 C9.96094141,9.52729094 9.92789184,9.7756635 9.92789184,10.0320481 L9.92789184,30.0300451 C9.92789184,30.2864296 9.96094141,30.5348022 10.0260391,30.7701552 L21.0545819,19.7426139 L10.0250376,9.2909364" id="Fill-10" fill="#5373AA"></path>
        <path d="M20.7671507,20.0310466 L26.2854281,14.5137707 L14.2974462,7.56334502 C13.8617927,7.30195293 13.3530295,7.15172759 12.8082123,7.15172759 C11.4762143,7.15172759 10.3525288,8.05808713 10.0260391,9.2879319 C10.0250376,9.2889334 10.0250376,9.2899349 10.0250376,9.2909364 L20.7671507,20.0310466" id="Fill-11" fill="#319F4F"></path>
    </g>
</svg>